# xmcd
#
# Track frame offsets: 
#        150
#        11399
#        25302
#        37384
#        49487
#        59834
#        67949
#        80982
#        94363
#        105299
#        114964
#        127048
#        139947
#        148567
#        159647
#        172910
#        186572
#        199191
#        208394
#        220560
#        234544
#        249220
#        261885
#        270434
#
# Disc length: 3723 seconds
#
# Revision: 1
# Processed by: cddbd v1.5.2PL0 Copyright (c) Steve Scherf et al.
# Submitted via: ExactAudioCopy v1.3
#
DISCID=6d0e8918
DTITLE=The Gosdin Brothers - Sounds Of Goodbye
DYEAR=2003
DGENRE=Country
TTITLE0=Sounds Of Goodbye (1968)
TTITLE1=Tell Me (2003)
TTITLE2=There Must Be A Someone (I Can Turn To) (1968)
TTITLE3=Woman's Disgrace (1968)
TTITLE4=Multiple Heartaches (1967)
TTITLE5=Love At First Sight (1966)
TTITLE6=The Victim (1968)
TTITLE7=Uncommitted Man (2003)
TTITLE8=Catch The Wind (1968)
TTITLE9=She's Gone (1968)
TTITLE10=No Matter Where You Go (There You Are) (1967)
TTITLE11=Hangin' On (1967)
TTITLE12=Wishing (2003)
TTITLE13=Louisiana Man (1968)
TTITLE14=I'll Live Today (2003)
TTITLE15=For Us To Find (1968)
TTITLE16=One Hundred Years From Now (1967)
TTITLE17=Bowling Green (1968)
TTITLE18=I'll Live With God (To Die No More) (2003)
TTITLE19=The First Time Ever I Saw Your Face (1968)
TTITLE20=Love Of The Common People (1968)
TTITLE21=She Still Wishes I Were You (1968)
TTITLE22=Had A Lot Of Friends (2003)
TTITLE23=Let It Be Me (1968)
EXTD=
EXTT0=
EXTT1=
EXTT2=
EXTT3=
EXTT4=
EXTT5=
EXTT6=
EXTT7=
EXTT8=
EXTT9=
EXTT10=
EXTT11=
EXTT12=
EXTT13=
EXTT14=
EXTT15=
EXTT16=
EXTT17=
EXTT18=
EXTT19=
EXTT20=
EXTT21=
EXTT22=
EXTT23=
PLAYORDER=
